<?xml version="1.0" encoding="utf-8"?>
<!-- Generator: Adobe Illustrator 24.0.1, SVG Export Plug-In . SVG Version: 6.00 Build 0)  -->
<svg version="1.1" id="Layer_1" xmlns="http://www.w3.org/2000/svg" xmlns:xlink="http://www.w3.org/1999/xlink" x="0px" y="0px"
	 width="64px" height="64px" viewBox="0 0 64 64" style="enable-background:new 0 0 64 64;" xml:space="preserve">
<style type="text/css">
	.st0{opacity:5.000000e-02;}
</style>
<g class="st0">
	<path d="M37.5,54.6c-0.9,0-1.7-0.3-2.3-0.9c-0.6-0.6-0.9-1.3-0.9-2.2c0-1.4,0.9-2.6,2.6-3.5c4.2-2.2,7.3-4.4,9.3-6.5
		c1.8-2,2.7-3.5,2.7-4.4c0-0.9-0.7-1.4-2.1-1.6l-0.8-0.1l-1.1-0.1c-3-0.4-5.5-1.8-7.3-4.1c-1.9-2.3-2.8-5.2-2.8-8.6s1.2-6.4,3.5-8.9
		c2.6-2.8,6-4.3,10.1-4.3c4,0,7.4,1.6,10.2,4.7C61.5,17.2,63,21.2,63,26c0,4.2-1.5,8.6-4.4,13.1c-2.9,4.5-6.7,8.3-11.4,11.4
		C43.1,53.2,39.9,54.6,37.5,54.6z M4.2,54.6c-0.9,0-1.7-0.3-2.3-0.9C1.3,53.1,1,52.4,1,51.5C1,50.1,1.9,49,3.7,48
		c4.2-2.2,7.3-4.4,9.3-6.5c1.8-2,2.7-3.5,2.7-4.4c0-0.9-0.7-1.4-2.1-1.6l-0.8-0.1l-1.1-0.1c-3-0.4-5.5-1.8-7.3-4.1
		c-1.9-2.3-2.8-5.2-2.8-8.6s1.2-6.4,3.5-8.9c2.6-2.8,6-4.3,10.1-4.3c4,0,7.4,1.6,10.2,4.7c2.9,3.2,4.4,7.1,4.4,11.9
		c0,4.2-1.5,8.6-4.4,13.1c-2.9,4.5-6.7,8.3-11.4,11.4C9.7,53.2,6.5,54.6,4.2,54.6z"/>
</g>
</svg>
