<?xml version="1.0" encoding="utf-8"?>
<!-- Generator: Adobe Illustrator 24.0.1, SVG Export Plug-In . SVG Version: 6.00 Build 0)  -->
<svg version="1.1" id="Layer_1" xmlns="http://www.w3.org/2000/svg" xmlns:xlink="http://www.w3.org/1999/xlink" x="0px" y="0px"
	 width="64px" height="64px" viewBox="0 0 64 64" style="enable-background:new 0 0 64 64;" xml:space="preserve">
<style type="text/css">
	.st0{opacity:5.000000e-02;}
</style>
<g class="st0">
	<path d="M26.5,9.4c0.9,0,1.7,0.3,2.3,0.9c0.6,0.6,0.9,1.3,0.9,2.2c0,1.4-0.9,2.6-2.6,3.5c-4.2,2.2-7.3,4.4-9.3,6.5
		c-1.8,2-2.7,3.5-2.7,4.4c0,0.9,0.7,1.4,2.1,1.6l0.8,0.1l1.1,0.1c3,0.4,5.5,1.8,7.3,4.1c1.9,2.3,2.8,5.2,2.8,8.6s-1.2,6.4-3.5,8.9
		c-2.6,2.8-6,4.3-10.1,4.3c-4,0-7.4-1.6-10.2-4.7C2.5,46.8,1,42.8,1,38c0-4.2,1.5-8.6,4.4-13.1c2.9-4.5,6.7-8.3,11.4-11.4
		C20.9,10.8,24.1,9.4,26.5,9.4z M59.8,9.4c0.9,0,1.7,0.3,2.3,0.9c0.6,0.6,0.9,1.3,0.9,2.2c0,1.4-0.9,2.6-2.7,3.5
		c-4.2,2.2-7.3,4.4-9.3,6.5c-1.8,2-2.7,3.5-2.7,4.4c0,0.9,0.7,1.4,2.1,1.6l0.8,0.1l1.1,0.1c3,0.4,5.5,1.8,7.3,4.1
		c1.9,2.3,2.8,5.2,2.8,8.6s-1.2,6.4-3.5,8.9c-2.6,2.8-6,4.3-10.1,4.3c-4,0-7.4-1.6-10.2-4.7c-2.9-3.2-4.4-7.1-4.4-11.9
		c0-4.2,1.5-8.6,4.4-13.1c2.9-4.5,6.7-8.3,11.4-11.4C54.3,10.8,57.5,9.4,59.8,9.4z"/>
</g>
</svg>
